<?xml version="1.0" encoding="UTF-8" standalone="no"?>
<!-- Created with Inkscape (http://www.inkscape.org/) -->

<svg
   version="1.1"
   id="svg85"
   width="1228.8"
   height="614.40002"
   viewBox="0 0 1228.8 614.40002"
   sodipodi:docname="logo.svg"
   inkscape:version="1.1.2 (0a00cf5339, 2022-02-04)"
   xmlns:inkscape="http://www.inkscape.org/namespaces/inkscape"
   xmlns:sodipodi="http://sodipodi.sourceforge.net/DTD/sodipodi-0.dtd"
   xmlns="http://www.w3.org/2000/svg"
   xmlns:svg="http://www.w3.org/2000/svg">
  <defs
     id="defs89" />
  <sodipodi:namedview
     id="namedview87"
     pagecolor="#ffffff"
     bordercolor="#666666"
     borderopacity="1.0"
     inkscape:pageshadow="2"
     inkscape:pageopacity="0.0"
     inkscape:pagecheckerboard="0"
     showgrid="false"
     inkscape:zoom="0.61686195"
     inkscape:cx="510.6491"
     inkscape:cy="562.52456"
     inkscape:window-width="1920"
     inkscape:window-height="1008"
     inkscape:window-x="0"
     inkscape:window-y="0"
     inkscape:window-maximized="1"
     inkscape:current-layer="g91" />
  <g
     inkscape:groupmode="layer"
     inkscape:label="Image"
     id="g91">
    <path
       style="fill:#000000;stroke-width:0.32"
       d="M 3.143173,307.31232 V 0.11232266 H 617.54317 1231.9431 V 307.31232 614.5123 H 617.54317 3.143173 Z m 1209.919927,0 V 172.91233 H 618.0697 23.076244 l -0.208833,19.76 c -0.114858,10.868 -0.198577,71.348 -0.186042,134.39999 l 0.02279,114.63998 H 617.88365 1213.0631 Z M 493.38317,432.0359 c -1.42234,-0.1736 -94.3656,-0.3434 -228.16,-0.4169 -165.920541,-0.091 -226.21313,-0.2196 -227.469562,-0.4849 -2.121382,-0.4478 -3.868794,-2.0596 -4.493486,-4.1446 -0.353105,-1.1786 -0.43809,-22.0762 -0.487325,-119.83238 -0.03306,-65.64293 0.06349,-118.87832 0.216665,-119.46744 0.440437,-1.69392 2.296159,-3.49983 4.167375,-4.05552 1.442243,-0.4283 63.269793,-0.48164 556.524413,-0.48005 390.20661,0.001 555.26475,0.10255 556.12455,0.34129 0.6724,0.18674 1.7876,0.84995 2.4781,1.4738 2.2123,1.99868 2.2192,2.06647 2.2192,21.86313 0,19.76043 0.01,19.84898 2.24,22.08 2.23,2.22996 2.3285,2.24 21.9964,2.24 12.1281,0 17.8464,0.11234 18.8727,0.37077 1.8327,0.46148 3.6382,2.19027 4.1815,4.0039 0.6036,2.01452 0.6314,189.4636 0.029,191.4761 -0.5749,1.9189 -2.3396,3.6275 -4.2411,4.1063 -1.1531,0.2904 -79.6698,0.3783 -336.64772,0.3772 -290.59469,0 -336.28755,0.061 -343.74704,0.4685 -9.3393,0.5101 -19.98973,0.5463 -23.80304,0.081 z M 205.6165,395.439 c -0.10633,-0.1063 -0.38233,-0.1177 -0.61333,-0.025 -0.25527,0.1021 -0.17945,0.178 0.19333,0.1933 0.33734,0.014 0.52634,-0.062 0.42,-0.1681 z m 95.68667,-0.036 c -0.484,-0.073 -1.276,-0.073 -1.76,0 -0.484,0.073 -0.088,0.1333 0.88,0.1333 0.968,0 1.364,-0.06 0.88,-0.1333 z m 139.65446,-0.5888 c 2.24023,-0.7441 3.92109,-2.3484 4.785,-4.5668 0.60454,-1.5525 0.70681,-2.4402 0.70681,-6.13518 0,-5.143 -0.60451,-7.2193 -2.63638,-9.0549 -2.51546,-2.2726 -1.32013,-2.1896 -32.4289,-2.2505 l -27.92099,-0.055 -1.32227,-0.7577 c -0.76371,-0.4376 -1.64237,-1.3163 -2.08,-2.08 l -0.75773,-1.3223 v -32.16 c 0,-17.688 0.10797,-32.5449 0.2399,-33.0153 0.3184,-1.13526 1.67748,-2.71691 2.91821,-3.39618 0.9128,-0.49975 3.10717,-0.56273 24.68189,-0.70851 l 23.68,-0.16 1.76,-0.9898 c 3.10653,-1.74706 4.24314,-4.43925 4.24314,-10.0502 0,-5.61095 -1.13661,-8.30314 -4.24314,-10.0502 l -1.76,-0.9898 -23.68,-0.16 c -25.79635,-0.1743 -24.56982,-0.0824 -26.28,-1.9696 -1.60259,-1.76847 -1.55757,-1.19972 -1.59763,-20.18122 -0.0208,-9.80695 -0.13251,-18.42416 -0.24848,-19.14936 -0.47664,-2.98079 -2.41815,-5.24457 -5.36467,-6.25526 -1.33044,-0.45634 -2.63114,-0.58175 -5.86922,-0.56586 -4.97414,0.0244 -7.09187,0.65565 -8.89494,2.65143 -2.20944,2.44558 -2.20906,2.44166 -2.25968,22.8567 -0.0494,19.91019 0.0163,19.16954 -1.85498,20.91185 -1.24547,1.15963 -2.46694,1.44709 -7.1504,1.68278 -4.8673,0.24494 -5.84838,0.54301 -7.76077,2.35789 -2.07021,1.96463 -3.06566,7.10218 -2.35408,12.1495 0.38867,2.75708 1.11552,4.43387 2.48554,5.73417 1.64189,1.55831 3.10288,1.95944 7.94931,2.18261 4.7151,0.21711 5.75958,0.50684 7.08,1.96397 1.64474,1.81497 1.55456,-0.64101 1.63699,44.57819 0.0845,46.30968 -0.005,44.21398 1.99162,46.62348 1.44294,1.7412 3.44281,2.5772 6.69875,2.8002 1.51395,0.1037 18.77754,0.1625 38.36352,0.1306 32.52032,-0.053 35.75261,-0.1049 37.24358,-0.6001 z m -76.34624,-0.8556 c -3.5462,-0.4429 -6.01203,-2.7465 -6.45724,-6.0323 -0.10538,-0.7777 -0.21396,-20.06208 -0.24128,-42.85408 -0.0387,-32.2461 -0.13853,-41.6945 -0.45015,-42.58709 -0.55379,-1.58644 -2.48758,-3.42731 -4.0392,-3.84512 -0.70809,-0.19067 -3.18067,-0.45439 -5.49459,-0.58604 -3.56944,-0.20309 -4.41885,-0.35626 -5.60406,-1.01056 -2.67888,-1.47888 -3.64701,-3.84973 -3.64701,-8.93118 0,-5.08036 0.96822,-7.45235 3.64518,-8.93017 1.19175,-0.65791 2.03696,-0.80711 5.79879,-1.02365 6.01228,-0.34609 7.63612,-1.08523 9.0648,-4.12618 0.66217,-1.40939 0.67724,-1.82095 0.71027,-19.36 0.0354,-18.78834 0.0869,-19.53721 1.48669,-21.61437 1.34825,-2.0007 4.51516,-3.17564 8.55958,-3.17564 4.04442,0 7.21133,1.17494 8.55958,3.17564 1.39981,2.07716 1.45133,2.82603 1.48669,21.61437 0.0253,13.44764 0.13367,18.20629 0.43418,19.0671 0.51491,1.47504 2.42477,3.38186 3.89245,3.88624 0.8567,0.29441 6.61529,0.41052 22.7471,0.45866 11.88,0.0354 22.40464,0.13048 23.38813,0.21118 2.84368,0.23333 4.91955,1.53526 6.09133,3.82034 0.87539,1.70715 1.28982,5.48381 0.92099,8.39296 -0.45533,3.59116 -1.552,5.37469 -4.16045,6.76609 -1.05565,0.5631 -2.46243,0.60662 -24.48,0.75743 -22.94301,0.15714 -23.3857,0.17208 -24.8,0.83653 -1.7088,0.80281 -2.64288,1.75411 -3.42474,3.48784 -0.53936,1.19602 -0.58073,3.27042 -0.66278,33.24792 -0.0978,35.7308 -0.17728,34.3228 2.06067,36.4963 0.6384,0.62 1.67962,1.3082 2.31379,1.5293 0.88727,0.3094 7.4968,0.4118 28.67306,0.4443 19.13613,0.029 27.91958,0.1509 28.83168,0.3992 3.7313,1.0161 5.55834,4.1843 5.55834,9.6386 0,5.42968 -1.83463,8.63188 -5.51293,9.62238 -1.46797,0.3952 -72.19219,0.6058 -75.24887,0.224 z m 74.25248,-2.6406 c 0.87828,-0.2608 1.90756,-0.8049 2.28727,-1.2091 2.29577,-2.4437 2.29577,-9.54958 0,-11.99338 -1.57491,-1.6764 -1.70253,-1.6833 -31.1352,-1.6833 -29.58922,0 -29.03258,0.031 -31.39443,-1.7701 -1.33418,-1.0176 -2.22794,-2.3781 -2.72605,-4.1499 -0.25802,-0.9177 -0.3408,-10.6839 -0.29251,-34.5013 0.0736,-36.27496 0.0112,-35.06957 1.93065,-37.38996 0.53283,-0.64419 1.65296,-1.50819 2.48919,-1.92 l 1.52038,-0.74873 23.52,-0.16 c 22.71379,-0.15452 23.56349,-0.18194 24.7888,-0.8 4.56976,-2.30505 4.56976,-11.45495 0,-13.76 -1.22531,-0.61806 -2.07501,-0.64549 -24.7888,-0.8 l -23.52,-0.16 -1.52038,-0.74873 c -0.83623,-0.41181 -1.95636,-1.27581 -2.48919,-1.92 -1.90461,-2.30264 -1.93171,-2.61354 -1.91549,-21.97686 0.016,-19.00625 -0.0618,-20.00384 -1.67827,-21.52238 -2.44374,-2.29579 -9.5496,-2.29579 -11.99334,0 -1.60576,1.50854 -1.68333,2.50041 -1.68333,21.52797 0,20.14267 0.015,20.00181 -2.39158,22.40842 -1.81991,1.81992 -3.73415,2.39158 -8.00842,2.39158 -5.34704,0 -7.2728,0.88994 -8.32915,3.84911 -0.66461,1.86173 -0.66461,5.80005 0,7.66178 1.05635,2.95917 2.98211,3.84911 8.32915,3.84911 4.27818,0 6.18806,0.57122 8.01357,2.39672 2.54083,2.54084 2.38048,-0.51581 2.46838,47.05187 l 0.078,42.23138 0.72314,1.3534 c 0.69196,1.2951 1.80992,2.1247 3.59478,2.6677 0.44115,0.1341 16.93994,0.2563 36.664,0.2714 30.80755,0.024 36.08698,-0.039 37.45878,-0.4467 z m 204.07034,3.3451 c 2.15514,-0.8064 3.76653,-2.4954 4.50675,-4.724 0.49203,-1.4813 0.54346,-5.24978 0.60019,-43.96358 0.0664,-45.3503 -0.0234,-42.87807 1.62202,-44.69369 1.53645,-1.6955 2.07802,-1.80064 9.864,-1.91496 8.75862,-0.1286 10.4289,0.12256 12.12893,1.82385 0.85888,0.85954 1.25891,1.61908 1.53862,2.9215 0.27591,1.2846 0.36538,9.02 0.33133,28.64 -0.0464,26.7536 -0.0434,26.8886 0.63891,28.6951 0.84413,2.235 2.49811,3.8075 4.85466,4.6156 1.34646,0.4617 2.63366,0.5866 5.88355,0.5706 4.97414,-0.024 7.09187,-0.6556 8.89494,-2.6514 2.27255,-2.5155 2.1896,-1.3201 2.25044,-32.4289 0.0584,-29.83049 -0.0141,-28.47421 1.61462,-30.27139 1.53645,-1.6955 2.07802,-1.80064 9.864,-1.91496 8.75862,-0.1286 10.4289,0.12256 12.12893,1.82385 0.8576,0.85827 1.25853,1.61856 1.53561,2.9121 0.27645,1.2906 0.36826,12.6007 0.34935,43.04 -0.015,24.2473 0.0957,41.69338 0.26832,42.26808 0.8271,2.7538 2.5335,4.5352 5.22457,5.4542 2.42397,0.8279 9.00234,0.8252 11.43277,0 2.3472,-0.8014 4.01226,-2.3787 4.83645,-4.5815 0.66662,-1.7817 0.66733,-1.8417 0.65734,-53.98468 -0.0112,-58.73667 0.17165,-54.40976 -2.40892,-56.99035 -2.54877,-2.54878 1.73219,-2.36808 -56.93399,-2.40302 -51.79798,-0.0308 -52.24995,-0.0257 -53.94937,0.62008 -2.21424,0.84135 -3.68791,2.29428 -4.48333,4.4202 -0.62592,1.67292 -0.63693,2.59065 -0.6488,54.09649 -0.007,30.3752 0.10966,52.80598 0.27757,53.37338 1.0103,3.4137 3.29497,5.2809 7.2495,5.9248 2.64157,0.4301 7.87725,0.073 9.87104,-0.6726 z m -8.98595,-0.02 c -3.50653,-0.4131 -5.54871,-1.71 -7.00855,-4.4509 -0.57513,-1.0798 -0.59654,-3.0203 -0.59654,-54.08008 v -52.95995 l 0.69069,-1.28 c 0.80819,-1.49776 2.06173,-2.72856 3.62931,-3.56347 1.07974,-0.57509 3.01248,-0.59653 53.76,-0.59653 50.01504,0 52.71478,0.0289 54.13965,0.57869 1.74893,0.67489 3.51837,2.49464 4.14173,4.25948 0.36467,1.03249 0.43862,10.11517 0.43862,53.88178 0,50.74758 -0.0214,52.68028 -0.59654,53.76008 -0.829,1.5564 -2.07332,2.8305 -3.46228,3.545 -1.62121,0.8339 -5.75891,1.2491 -8.92236,0.8952 -3.75658,-0.4203 -5.72615,-1.6312 -7.22228,-4.4402 -0.57113,-1.0723 -0.60336,-2.9456 -0.75654,-44.00008 l -0.16,-42.88 -0.80403,-1.43593 c -0.52919,-0.94513 -1.29485,-1.71081 -2.24,-2.24 -1.41283,-0.79106 -1.56749,-0.80569 -9.59597,-0.90753 -5.58061,-0.0708 -8.56461,0.0149 -9.44,0.2712 -1.74173,0.50986 -3.14973,1.63418 -3.87498,3.09424 -0.5759,1.15944 -0.61273,2.58882 -0.76502,29.69802 -0.15965,28.4192 -0.16147,28.4828 -0.85069,29.76 -0.80211,1.4865 -2.08537,2.7532 -3.52425,3.4788 -1.48874,0.7507 -5.74509,1.1394 -8.77012,0.801 -3.73216,-0.4176 -5.66755,-1.5802 -7.12425,-4.2798 -0.68922,-1.2772 -0.69104,-1.3408 -0.85069,-29.76 l -0.16,-28.48 -0.80403,-1.43593 c -0.52919,-0.94513 -1.29485,-1.71081 -2.24,-2.24 -1.41283,-0.79106 -1.56749,-0.80569 -9.59597,-0.90753 -5.58061,-0.0708 -8.56461,0.0149 -9.44,0.2712 -1.74173,0.50986 -3.14973,1.63418 -3.87498,3.09424 -0.58182,1.17134 -0.61116,2.86312 -0.76502,44.09802 -0.15318,41.05448 -0.18541,42.92778 -0.75654,44.00008 -1.34407,2.5235 -3.37965,3.9517 -6.13098,4.3015 -3.10038,0.3942 -4.17795,0.4191 -6.46739,0.1494 z m 7.04829,-2.7177 c 1.95379,-0.6657 3.26489,-2.1864 3.72172,-4.3165 0.2552,-1.1901 0.3545,-13.61058 0.34362,-42.98518 -0.009,-23.6341 0.1081,-41.73034 0.27306,-42.29025 0.68873,-2.3374 2.07968,-4.03898 4.16057,-5.08973 1.61043,-0.81317 5.14887,-1.02466 13.64765,-0.81571 6.5712,0.16156 7.8417,0.27316 8.8,0.77301 1.55629,0.81175 2.81651,2.04482 3.62931,3.55113 0.68922,1.27726 0.69104,1.34081 0.85069,29.75995 0.14253,25.3687 0.21667,28.6024 0.67875,29.6 1.1616,2.5079 3.35383,3.52 7.62448,3.52 4.91805,0 7.26141,-1.4172 7.99437,-4.8349 0.25338,-1.1814 0.35504,-9.7282 0.3401,-28.5852 -0.0134,-16.9105 0.0964,-27.29607 0.29587,-27.96682 0.86528,-2.91034 2.97001,-4.91027 5.94643,-5.6503 0.528,-0.13128 4.80314,-0.21647 9.50032,-0.18931 9.98845,0.0577 11.14259,0.26526 13.26179,2.38447 2.50675,2.50668 2.35789,-0.41559 2.35789,46.28196 0,45.34968 -0.0667,43.69668 1.83702,45.52058 1.33856,1.2824 3.2968,1.8395 6.46621,1.8395 4.93488,0 7.2848,-1.4287 7.99507,-4.8608 0.24903,-1.2033 0.32685,-16.45398 0.26666,-52.25928 l -0.085,-50.55995 -0.8,-1.6 c -0.64,-1.28 -1.12,-1.76 -2.4,-2.4 l -1.6,-0.8 -50.56,-0.085 c -36.79219,-0.0618 -51.03821,0.014 -52.31613,0.27849 -2.38416,0.49345 -3.93565,2.02452 -4.44064,4.38223 -0.26221,1.22414 -0.36323,15.64757 -0.36323,51.86193 0,54.87018 -0.0852,52.36118 1.84202,54.20758 0.49337,0.4727 1.46876,1.0688 2.16752,1.3245 1.76435,0.646 6.67244,0.6479 8.56384,0 z m 528.16035,2.0942 c 3.4941,-0.806 5.2796,-3.1573 5.8497,-7.7035 0.3857,-3.07628 -0.028,-6.73178 -0.9722,-8.58178 -0.8439,-1.6542 -2.6358,-3.0808 -4.4499,-3.543 -1.1043,-0.2813 -11.9085,-0.3663 -42.4414,-0.3338 -29.1819,0.031 -41.4397,-0.06 -42.6283,-0.3149 -2.3001,-0.4942 -3.6307,-1.4695 -4.5717,-3.3509 -0.793,-1.5855 -0.8,-1.6741 -0.8,-10.0796 0,-8.4054 0.01,-8.494 0.8,-10.0795 0.9409,-1.8812 2.2713,-2.8565 4.5717,-3.3513 1.1908,-0.2562 13.4375,-0.3448 42.7883,-0.3095 31.3621,0.038 41.4616,-0.043 42.5594,-0.3388 1.9473,-0.5253 4.2712,-2.8456 4.8089,-4.8014 0.3024,-1.1003 0.3808,-7.9426 0.3323,-29.0359 -0.035,-15.17811 -0.1867,-28.02707 -0.3377,-28.55327 -0.8149,-2.84164 -2.8879,-4.83474 -5.692,-5.47276 -1.9707,-0.44837 -103.719,-0.41696 -105.3883,0.0325 -1.879,0.50596 -4.2424,2.85803 -4.7441,4.72139 -0.2717,1.00885 -0.3669,15.03421 -0.3609,53.16844 0.01,51.72208 0.01,51.80078 0.6759,53.58288 0.7798,2.0841 2.3066,3.5149 4.4665,4.1855 1.2069,0.3748 9.7551,0.4495 52.8,0.4616 32.82,0.01 51.8559,-0.1 52.7338,-0.3024 z m -55.1338,-66.54288 -31.04,-0.1647 -1.5287,-0.7527 c -0.8408,-0.414 -1.8969,-1.2355 -2.347,-1.8256 -1.5389,-2.0177 -1.7243,-3.3738 -1.7243,-12.6144 0,-9.88585 0.206,-11.09328 2.24,-13.12725 2.3083,-2.30827 0.6318,-2.20723 37.2092,-2.24266 21.6565,-0.021 33.0805,0.0799 33.8046,0.29859 1.6145,0.48747 3.3794,1.7573 4.1175,2.96253 1.215,1.98389 1.3991,3.56289 1.4105,12.10299 0.013,9.644 -0.234,11.0507 -2.3018,13.1185 -1.4355,1.4355 -3.4396,2.1207 -6.72,2.2973 -1.144,0.062 -16.048,0.038 -33.12,-0.053 z m 36.16,-2.8495 c 1.5491,-0.7149 2.524,-1.728 3.1847,-3.3092 0.4028,-0.9641 0.4953,-2.699 0.4953,-9.2928 0,-8.057 -0.01,-8.1177 -0.8191,-9.75122 -0.6683,-1.34116 -1.1217,-1.7945 -2.4628,-2.46283 l -1.6438,-0.8191 -31.8571,0.002 c -22.2559,10e-4 -32.2408,0.10828 -33.13,0.35514 -1.6312,0.45285 -3.5174,2.33909 -3.9703,3.97031 -0.4621,1.6643 -0.4716,15.8869 -0.012,17.543 0.4477,1.6125 2.0558,3.3237 3.6548,3.8891 1.0701,0.3784 6.5265,0.4537 33.28,0.4596 30.4437,0.01 32.0622,-0.022 33.28,-0.5837 z m -66.0394,-0.1906 c -1.9361,-0.6092 -3.1678,-1.8956 -3.7576,-3.9246 -0.7371,-2.5354 -0.5308,-16.4273 0.2655,-17.88183 0.6793,-1.24073 2.2609,-2.5998 3.3962,-2.91821 0.4704,-0.13195 15.3273,-0.23991 33.0153,-0.23991 h 32.16 l 1.3223,0.75772 c 0.7637,0.43764 1.6423,1.31629 2.08,2.08 0.7426,1.29583 0.7577,1.48533 0.7577,9.48223 0,4.488 -0.108,8.5449 -0.2399,9.0154 -0.3184,1.1352 -1.6775,2.7169 -2.9182,3.3961 -0.925,0.5064 -3.4463,0.5533 -32.8419,0.611 -26.267,0.051 -32.0849,-0.015 -33.2394,-0.3779 z M 882.41911,393.2793 c 2.96764,-1.2982 4.35776,-4.2888 4.33526,-9.32698 -0.007,-1.584 -0.17418,-3.4702 -0.37133,-4.1916 -0.70739,-2.5882 -2.62297,-4.549 -5.12224,-5.2432 -0.74793,-0.2078 -15.83104,-0.3222 -42.61955,-0.3234 -46.03498,0 -43.69002,0.105 -45.88742,-2.0924 -1.82992,-1.8299 -2.09066,-3.3261 -2.09066,-11.9966 0,-9.8785 0.4769,-11.5473 3.76224,-13.1653 l 1.51776,-0.7475 42.88,-0.16 c 47.27629,-0.1764 43.59827,-0.01 45.71635,-2.1236 2.10042,-2.1004 1.96365,0.1142 1.96365,-31.7964 0,-31.91053 0.13677,-29.69591 -1.96365,-31.79632 -1.33417,-1.33418 -2.48601,-1.82346 -4.86384,-2.06606 -1.17286,-0.11966 -24.95651,-0.14557 -52.85251,-0.0576 -48.73322,0.15373 -50.76387,0.1834 -51.84,0.75743 -1.5735,0.83934 -2.51286,1.75924 -3.31114,3.24257 l -0.68886,1.28 v 52.47998 52.47998 l 0.75277,1.5288 c 0.90166,1.8311 2.43625,3.0764 4.46982,3.6273 1.18445,0.3208 12.29799,0.3929 53.17741,0.3448 49.54326,-0.058 51.73606,-0.085 53.03594,-0.654 z m -87.03456,-67.59848 c -0.85674,-0.2635 -2.00164,-0.9501 -2.62685,-1.5753 -1.83395,-1.8339 -2.09453,-3.326 -2.09453,-11.9932 0,-8.6626 0.26106,-10.15968 2.09066,-11.98928 2.16374,-2.16374 0.92262,-2.09154 35.80742,-2.08285 20.24598,0.005 31.8929,0.12418 32.82192,0.33572 2.12669,0.48425 3.6519,1.62965 4.52125,3.39535 0.74259,1.50826 0.75875,1.72856 0.75875,10.34106 0,8.6126 -0.016,8.8329 -0.75875,10.3412 -0.86935,1.7657 -2.39456,2.911 -4.52125,3.3953 -0.93299,0.2124 -12.53808,0.3228 -32.96,0.3134 -26.69091,-0.012 -31.75267,-0.086 -33.03862,-0.4814 z M 938.8608,393.3982 c 1.7864,-0.5131 3.24429,-1.6513 4.12237,-3.2182 l 0.8,-1.4276 0.16,-37.92008 c 0.15027,-35.6122 0.19501,-37.9976 0.73526,-39.1956 0.78186,-1.7337 1.71594,-2.685 3.42474,-3.4878 1.4297,-0.6717 1.67722,-0.6777 34.58534,-0.8366 l 33.14529,-0.16 1.5571,-0.9628 c 1.1066,-0.6843 1.7937,-1.4228 2.3747,-2.5524 0.7535,-1.46509 0.8175,-1.91609 0.8175,-5.75718 0,-3.74403 -0.078,-4.32497 -0.7625,-5.71633 -0.9291,-1.88741 -2.7128,-3.24568 -4.8695,-3.7082 -1.0762,-0.23081 -11.8352,-0.34304 -32.88559,-0.34304 -34.58231,0 -33.51972,0.0601 -35.74861,-2.0204 -0.6008,-0.56078 -1.77667,-2.02247 -2.61306,-3.24819 -1.94115,-2.84481 -3.54582,-3.86691 -6.88067,-4.38263 -1.9216,-0.29717 -3.03162,-0.29777 -4.92979,-0.003 -3.98253,0.61915 -6.02323,2.17699 -6.84384,5.2245 -0.44435,1.65018 -0.42586,103.27725 0.0192,104.92975 0.72457,2.6908 2.54745,4.2785 5.74848,5.0067 1.91945,0.4367 6.15933,0.32 8.04368,-0.2212 z m -796.47905,-0.4994 c 1.89329,-0.668 3.35433,-2.1665 4.01928,-4.1222 0.75596,-2.2235 0.74974,-7.12298 -0.0119,-9.36428 -0.67215,-1.9778 -2.46816,-3.7489 -4.30272,-4.2429 -0.69093,-0.1861 -5.11329,-0.3732 -9.85814,-0.4172 -7.99882,-0.074 -8.70657,-0.1275 -10.04511,-0.7564 -1.70878,-0.8028 -2.64287,-1.7541 -3.42473,-3.4878 -0.54608,-1.2109 -0.58338,-4.66 -0.73526,-67.99565 -0.17656,-73.62427 -2.9e-4,-67.83239 -2.12512,-69.82757 -1.96224,-1.84251 -2.07776,-1.85243 -21.554881,-1.85243 -19.670825,0 -19.613644,-0.005 -21.671625,1.98942 -1.492169,1.44627 -2.138448,3.64962 -2.138448,7.29058 0,3.64169 0.647101,5.84726 2.137255,7.28455 1.79399,1.73036 2.226956,1.80156 12.072818,1.98528 8.78613,0.16394 9.1767,0.19808 10.66876,0.93264 1.9102,0.9404 3.2622,2.7368 3.71864,4.94093 0.2384,1.15124 0.31705,18.78854 0.25783,57.81655 l -0.0852,56.16 -0.67654,1.44 c -0.80281,1.7088 -1.7541,2.6429 -3.48783,3.4248 -1.10991,0.5005 -2.39778,0.5856 -9.91298,0.6552 -9.625713,0.089 -10.829211,0.289 -12.573227,2.0884 -1.52224,1.5706 -2.066854,3.4165 -2.098141,7.1116 -0.04322,5.10378 1.283748,7.77528 4.434845,8.92868 1.976541,0.7235 65.344904,0.7402 67.392444,0.018 z m 431.99998,0 c 3.26246,-1.1511 4.59398,-3.7691 4.55014,-8.94648 -0.0314,-3.6951 -0.5759,-5.541 -2.09814,-7.1116 -1.744,-1.7994 -2.94749,-1.9993 -12.57322,-2.0884 -8.03148,-0.074 -8.73833,-0.1274 -10.07734,-0.7565 -1.7088,-0.8028 -2.64288,-1.7541 -3.42474,-3.4878 -0.54176,-1.2014 -0.58457,-3.7625 -0.73526,-43.9957 -0.17782,-47.48237 0.004,-43.92654 -2.34813,-45.99148 -0.6399,-0.56185 -1.73491,-1.17541 -2.43337,-1.36349 -0.82893,-0.2232 -7.4201,-0.3418 -18.98109,-0.34153 -19.5481,3.2e-4 -19.51687,-0.003 -21.58903,2.00598 -1.49219,1.44626 -2.13846,3.64961 -2.13846,7.29057 0,3.64096 0.64627,5.84431 2.13846,7.29057 1.86746,1.81001 2.9401,1.98943 11.89376,1.98943 9.32548,0 10.73885,0.24569 12.701,2.20786 2.30905,2.30904 2.22227,0.79004 2.12425,37.17949 -0.0869,32.2788 -0.091,32.4604 -0.76393,33.8926 -0.80282,1.7088 -1.75408,2.6429 -3.48781,3.4248 -1.10951,0.5003 -2.39642,0.5856 -9.88077,0.6551 -4.74483,0.044 -9.1672,0.2311 -9.85811,0.4172 -1.83456,0.494 -3.63059,2.2651 -4.30272,4.2429 -0.76163,2.2413 -0.76787,7.14078 -0.0118,9.36428 0.64752,1.9045 2.1183,3.4508 3.904,4.1044 1.97654,0.7235 65.34489,0.7402 67.39241,0.018 z m -269.04337,-0.2187 c 1.67602,-0.5022 3.47034,-2.2965 3.97249,-3.9725 0.57031,-1.9035 0.57031,-103.2869 0,-105.19042 -0.58771,-1.96161 -2.38436,-3.58726 -4.45812,-4.03381 -1.25962,-0.27124 -15.22696,-0.34218 -53.06956,-0.26956 -57.27491,0.10991 -52.21061,-0.10613 -54.33903,2.31801 -1.3211,1.50465 -1.78731,3.26523 -1.78493,6.74055 0.003,4.38659 1.07043,6.80536 3.5459,8.03497 1.17133,0.58182 2.8631,0.61117 44.09806,0.76503 47.58683,0.17756 43.95013,-6.4e-4 46.21539,2.26461 2.05718,2.05719 2.10461,2.34511 2.10461,12.77534 0,8.5969 -0.0533,9.5401 -0.59653,10.56 -0.83492,1.5676 -2.06572,2.8212 -3.56347,3.6294 l -1.28,0.6906 -42.72,0.16 -42.72,0.16 -1.42762,0.8 c -1.57353,0.8818 -2.71444,2.3482 -3.20725,4.1224 -0.45839,1.6503 -0.43686,54.50238 0.0229,56.15818 0.44756,1.6119 2.3528,3.6258 3.97199,4.1986 1.08258,0.383 9.19574,0.455 52.60287,0.4668 39.631,0.011 51.62118,-0.075 52.63232,-0.3782 z m -84.87589,-20.08848 c -2.31827,-0.5473 -4.04013,-2.6054 -4.36331,-5.2155 -0.11331,-0.9151 -0.15876,-4.8318 -0.101,-8.7038 0.10024,-6.72 0.13945,-7.1001 0.86273,-8.3623 0.43764,-0.7637 1.31629,-1.6423 2.08,-2.08 l 1.32228,-0.7577 31.52,-0.099 c 22.77815,-0.072 31.99033,0 33.21582,0.2665 2.14862,0.4634 3.66116,1.8894 4.177,3.938 0.479,1.9023 0.49016,15.123 0.0144,17.0126 -0.46178,1.8339 -2.13547,3.5075 -3.96938,3.9693 -1.65058,0.4157 -63.00529,0.4461 -64.75849,0.032 z m 91.7099,10.3207 c -0.0733,-0.484 -0.13331,-0.088 -0.13331,0.88 0,0.968 0.06,1.364 0.13331,0.88 0.0733,-0.484 0.0733,-1.276 0,-1.76 z m -118.7306,0.5 c -0.10216,-0.2553 -0.17798,-0.1794 -0.19334,0.1934 -0.0139,0.3373 0.0617,0.5263 0.16807,0.42 0.10634,-0.1064 0.1177,-0.3824 0.0252,-0.6134 z m 2.70222,-56.18 c 0.39804,-0.5075 0.38672,-0.5188 -0.12082,-0.1208 -0.308,0.2415 -0.56,0.4935 -0.56,0.56 0,0.2634 0.26278,0.094 0.68082,-0.4392 z m 92.11918,-25.80081 c 0,-0.0664 -0.252,-0.31845 -0.56,-0.56 -0.50754,-0.39804 -0.51886,-0.38672 -0.12082,0.12082 0.41804,0.53304 0.68082,0.70255 0.68082,0.43918 z m -94.8214,-11.77918 c -0.10216,-0.25527 -0.17798,-0.17945 -0.19334,0.19333 -0.0139,0.33734 0.0617,0.52634 0.16807,0.42 0.10634,-0.10633 0.1177,-0.38233 0.0252,-0.61333 z m 118.7306,-2.1 c -0.0733,-0.484 -0.13331,-0.088 -0.13331,0.88 0,0.968 0.06,1.364 0.13331,0.88 0.0733,-0.484 0.0733,-1.276 0,-1.76 z m -118.7306,-1.42 c -0.10216,-0.25527 -0.17798,-0.17945 -0.19334,0.19333 -0.0139,0.33733 0.0617,0.52634 0.16807,0.42 0.10634,-0.10633 0.1177,-0.38233 0.0252,-0.61333 z m 107.8614,-9.44059 c -0.308,-0.0805 -0.812,-0.0805 -1.12,0 -0.308,0.0805 -0.056,0.14635 0.56,0.14635 0.616,0 0.868,-0.0659 0.56,-0.14635 z M 545.97559,249.7173 c 1.67075,-0.50561 3.90204,-2.79459 4.4222,-4.53657 0.23495,-0.78676 0.4146,-2.98307 0.4146,-5.0684 0,-4.58797 -0.41028,-6.0379 -2.2208,-7.84842 -1.81053,-1.81053 -3.26045,-2.2208 -7.84842,-2.2208 -4.58515,0 -6.03827,0.41064 -7.84442,2.21679 -1.63052,1.63055 -2.0527,2.84923 -2.3007,6.64158 -0.41728,6.38036 1.43011,9.91236 5.75971,11.01207 1.94263,0.49342 7.72899,0.37535 9.61783,-0.19625 z m 651.03571,-42.09323 c -1.2531,-0.68057 -1.8074,-2.61766 -1.9665,-6.87174 -0.1554,-4.15586 -0.533,-5.36012 -2.2909,-7.30597 -1.9265,-2.13239 -3.3862,-2.64589 -8.2602,-2.90595 -4.7401,-0.25291 -5.969,-0.67088 -6.6244,-2.25299 -0.6051,-1.46094 0.026,-2.69844 1.817,-3.56569 1.3583,-0.65756 1.8349,-0.69211 8.8462,-0.64138 4.0758,0.0295 7.9525,0.1988 8.6148,0.37626 1.5884,0.42558 3.2948,1.96004 3.8162,3.43171 0.3033,0.85593 0.4196,3.4007 0.4196,9.18401 0,8.63737 -0.1228,9.34528 -1.8294,10.54057 -0.8715,0.61041 -1.4345,0.61289 -2.5424,0.0112 z"
       id="path537" />
  </g>
</svg>
